<svg width="131" height="25" viewBox="0 0 131 25" fill="none" xmlns="http://www.w3.org/2000/svg">
    <path d="M0.376065 19V0.818181H13.0536V4.38707H4.7706V8.11577H12.4055V11.6935H4.7706V15.4311H13.0536V19H0.376065ZM20.147 11.223V19H15.8058V5.36364H19.9339V7.86719H20.0849C20.3867 7.03267 20.9016 6.37867 21.6296 5.90518C22.3576 5.42578 23.2247 5.18608 24.2308 5.18608C25.1896 5.18608 26.0212 5.40211 26.7255 5.83416C27.4357 6.2603 27.9862 6.85807 28.3768 7.62749C28.7733 8.39098 28.9686 9.28468 28.9627 10.3086V19H24.6214V11.1609C24.6274 10.4033 24.435 9.81143 24.0444 9.3853C23.6597 8.95916 23.1241 8.74609 22.4375 8.74609C21.9818 8.74609 21.5793 8.84671 21.2301 9.04794C20.8868 9.24325 20.6205 9.52438 20.4311 9.89134C20.2476 10.2583 20.1529 10.7022 20.147 11.223ZM36.6309 19.1953C35.6248 19.1953 34.7104 18.9349 33.8877 18.4141C33.065 17.8932 32.4081 17.112 31.9168 16.0703C31.4256 15.0286 31.18 13.7354 31.18 12.1907C31.18 10.5868 31.4345 9.26693 31.9434 8.23118C32.4524 7.19543 33.1183 6.42898 33.941 5.93182C34.7696 5.43466 35.6603 5.18608 36.6132 5.18608C37.3293 5.18608 37.9419 5.31037 38.4509 5.55895C38.9599 5.80161 39.3801 6.11529 39.7116 6.5C40.043 6.88471 40.2945 7.28421 40.4662 7.69851H40.555V0.818181H44.8962V19H40.5993V16.7894H40.4662C40.2827 17.2096 40.0223 17.6032 39.6849 17.9702C39.3476 18.3371 38.9244 18.633 38.4154 18.858C37.9123 19.0829 37.3175 19.1953 36.6309 19.1953ZM38.1402 15.8129C38.6669 15.8129 39.1167 15.6649 39.4896 15.369C39.8625 15.0671 40.1495 14.6439 40.3508 14.0994C40.552 13.5549 40.6526 12.9157 40.6526 12.1818C40.6526 11.4361 40.552 10.7939 40.3508 10.2553C40.1555 9.71674 39.8684 9.30244 39.4896 9.01243C39.1167 8.72242 38.6669 8.57741 38.1402 8.57741C37.6016 8.57741 37.1459 8.72538 36.773 9.02131C36.4001 9.31723 36.116 9.73449 35.9207 10.2731C35.7313 10.8117 35.6366 11.4479 35.6366 12.1818C35.6366 12.9157 35.7343 13.5549 35.9296 14.0994C36.1249 14.6439 36.406 15.0671 36.773 15.369C37.1459 15.6649 37.6016 15.8129 38.1402 15.8129ZM54.016 19.2575C52.5896 19.2575 51.3585 18.9763 50.3228 18.4141C49.293 17.8459 48.4999 17.038 47.9435 15.9904C47.3931 14.9369 47.1179 13.6851 47.1179 12.2351C47.1179 10.8265 47.3961 9.59541 47.9524 8.5419C48.5088 7.48248 49.293 6.6598 50.305 6.07386C51.3171 5.48201 52.5097 5.18608 53.8828 5.18608C54.8535 5.18608 55.7412 5.337 56.5462 5.63885C57.3511 5.9407 58.0465 6.38755 58.6325 6.9794C59.2184 7.57126 59.6741 8.3022 59.9996 9.17223C60.3252 10.0363 60.4879 11.0277 60.4879 12.1463V13.2294H48.636V10.7081H56.4485C56.4426 10.2464 56.3331 9.83511 56.12 9.47408C55.907 9.11304 55.614 8.83191 55.2411 8.63068C54.8742 8.42353 54.451 8.31996 53.9716 8.31996C53.4863 8.31996 53.0513 8.42945 52.6665 8.64844C52.2818 8.86151 51.977 9.15447 51.7521 9.52734C51.5272 9.89429 51.4089 10.3116 51.397 10.7791V13.3448C51.397 13.9012 51.5065 14.3894 51.7255 14.8097C51.9445 15.224 52.2552 15.5465 52.6577 15.7773C53.0601 16.0082 53.5395 16.1236 54.0959 16.1236C54.4806 16.1236 54.8298 16.0703 55.1435 15.9638C55.4571 15.8572 55.7264 15.7004 55.9513 15.4933C56.1763 15.2861 56.3449 15.0316 56.4574 14.7298L60.4435 14.8452C60.2778 15.7389 59.9138 16.5172 59.3516 17.18C58.7952 17.837 58.0643 18.349 57.1587 18.7159C56.2532 19.0769 55.2056 19.2575 54.016 19.2575ZM62.7052 19V5.36364H66.9221V7.84943H67.0642C67.3128 6.94981 67.7182 6.28101 68.2805 5.84304C68.8427 5.39915 69.4967 5.1772 70.2425 5.1772C70.4437 5.1772 70.6508 5.192 70.8639 5.22159C71.077 5.24526 71.2752 5.28374 71.4587 5.337V9.11009C71.2516 9.03906 70.9793 8.98284 70.642 8.94141C70.3105 8.89998 70.0146 8.87926 69.7542 8.87926C69.2393 8.87926 68.7747 8.99467 68.3604 9.2255C67.952 9.4504 67.6294 9.76705 67.3927 10.1754C67.1618 10.5779 67.0464 11.0514 67.0464 11.5959V19H62.7052ZM78.8939 19.2575C77.4675 19.2575 76.2365 18.9763 75.2007 18.4141C74.1709 17.8459 73.3778 17.038 72.8215 15.9904C72.271 14.9369 71.9958 13.6851 71.9958 12.2351C71.9958 10.8265 72.274 9.59541 72.8303 8.5419C73.3867 7.48248 74.1709 6.6598 75.183 6.07386C76.195 5.48201 77.3876 5.18608 78.7607 5.18608C79.7314 5.18608 80.6192 5.337 81.4241 5.63885C82.229 5.9407 82.9244 6.38755 83.5104 6.9794C84.0963 7.57126 84.5521 8.3022 84.8776 9.17223C85.2031 10.0363 85.3659 11.0277 85.3659 12.1463V13.2294H73.5139V10.7081H81.3264C81.3205 10.2464 81.211 9.83511 80.998 9.47408C80.7849 9.11304 80.4919 8.83191 80.1191 8.63068C79.7521 8.42353 79.3289 8.31996 78.8495 8.31996C78.3642 8.31996 77.9292 8.42945 77.5445 8.64844C77.1598 8.86151 76.855 9.15447 76.6301 9.52734C76.4052 9.89429 76.2868 10.3116 76.2749 10.7791V13.3448C76.2749 13.9012 76.3844 14.3894 76.6034 14.8097C76.8224 15.224 77.1331 15.5465 77.5356 15.7773C77.9381 16.0082 78.4175 16.1236 78.9738 16.1236C79.3585 16.1236 79.7077 16.0703 80.0214 15.9638C80.3351 15.8572 80.6044 15.7004 80.8293 15.4933C81.0542 15.2861 81.2229 15.0316 81.3353 14.7298L85.3215 14.8452C85.1557 15.7389 84.7918 16.5172 84.2295 17.18C83.6731 17.837 82.9422 18.349 82.0367 18.7159C81.1311 19.0769 80.0835 19.2575 78.8939 19.2575ZM93.9485 19.2575C92.5103 19.2575 91.2763 18.9615 90.2464 18.3697C89.2225 17.7778 88.4354 16.9551 87.8849 15.9016C87.3345 14.8422 87.0593 13.6171 87.0593 12.2262C87.0593 10.8294 87.3345 9.60428 87.8849 8.55078C88.4413 7.49136 89.2314 6.66572 90.2553 6.07386C91.2852 5.48201 92.5133 5.18608 93.9396 5.18608C95.2003 5.18608 96.2982 5.41394 97.2333 5.86967C98.1744 6.3254 98.9083 6.97053 99.435 7.80504C99.9677 8.63364 100.249 9.60724 100.278 10.7259H96.2212C96.1384 10.0275 95.9016 9.47999 95.511 9.08345C95.1263 8.68691 94.6232 8.48864 94.0018 8.48864C93.4987 8.48864 93.0578 8.63068 92.679 8.91477C92.3002 9.19295 92.0043 9.60724 91.7912 10.1577C91.584 10.7022 91.4805 11.3769 91.4805 12.1818C91.4805 12.9867 91.584 13.6674 91.7912 14.2237C92.0043 14.7741 92.3002 15.1914 92.679 15.4755C93.0578 15.7537 93.4987 15.8928 94.0018 15.8928C94.4042 15.8928 94.7594 15.8069 95.0671 15.6353C95.3808 15.4637 95.6383 15.2121 95.8395 14.8807C96.0407 14.5433 96.168 14.1349 96.2212 13.6555H100.278C100.237 14.7801 99.9558 15.7625 99.435 16.603C98.9201 17.4434 98.1951 18.0974 97.2599 18.565C96.3307 19.0266 95.2269 19.2575 93.9485 19.2575ZM93.0962 18.929H94.8363L94.6942 19.728C95.3453 19.8227 95.8661 20.0565 96.2567 20.4293C96.6474 20.8081 96.8456 21.2994 96.8516 21.9031C96.8575 22.8263 96.4165 23.5543 95.5288 24.087C94.6469 24.6256 93.4188 24.8949 91.8445 24.8949L91.8267 23.1104C92.6375 23.1104 93.2649 23.0187 93.7088 22.8352C94.1527 22.6518 94.3835 22.3736 94.4013 22.0007C94.419 21.6574 94.2859 21.3822 94.0018 21.1751C93.7177 20.9738 93.2768 20.8348 92.679 20.7578L93.0962 18.929ZM108.866 19.2575C107.433 19.2575 106.202 18.9645 105.172 18.3786C104.148 17.7867 103.358 16.964 102.802 15.9105C102.252 14.8511 101.976 13.623 101.976 12.2262C101.976 10.8235 102.252 9.59541 102.802 8.5419C103.358 7.48248 104.148 6.6598 105.172 6.07386C106.202 5.48201 107.433 5.18608 108.866 5.18608C110.298 5.18608 111.526 5.48201 112.55 6.07386C113.58 6.6598 114.37 7.48248 114.92 8.5419C115.477 9.59541 115.755 10.8235 115.755 12.2262C115.755 13.623 115.477 14.8511 114.92 15.9105C114.37 16.964 113.58 17.7867 112.55 18.3786C111.526 18.9645 110.298 19.2575 108.866 19.2575ZM108.892 15.9815C109.413 15.9815 109.854 15.8217 110.215 15.5021C110.576 15.1825 110.851 14.7386 111.041 14.1705C111.236 13.6023 111.334 12.9453 111.334 12.1996C111.334 11.442 111.236 10.7791 111.041 10.2109C110.851 9.64276 110.576 9.19886 110.215 8.87926C109.854 8.55966 109.413 8.39986 108.892 8.39986C108.354 8.39986 107.898 8.55966 107.525 8.87926C107.158 9.19886 106.877 9.64276 106.682 10.2109C106.492 10.7791 106.397 11.442 106.397 12.1996C106.397 12.9453 106.492 13.6023 106.682 14.1705C106.877 14.7386 107.158 15.1825 107.525 15.5021C107.898 15.8217 108.354 15.9815 108.892 15.9815ZM129.884 9.52734L125.898 9.63388C125.856 9.34979 125.744 9.09825 125.56 8.87926C125.377 8.65436 125.137 8.47976 124.841 8.35547C124.551 8.22526 124.214 8.16016 123.829 8.16016C123.326 8.16016 122.897 8.26077 122.542 8.462C122.193 8.66323 122.021 8.93549 122.027 9.27876C122.021 9.5451 122.128 9.77592 122.347 9.97124C122.571 10.1665 122.971 10.3234 123.545 10.4418L126.173 10.9389C127.534 11.1993 128.546 11.6314 129.209 12.2351C129.878 12.8388 130.215 13.6378 130.221 14.6321C130.215 15.5672 129.937 16.381 129.387 17.0735C128.842 17.766 128.096 18.3046 127.149 18.6893C126.202 19.0681 125.119 19.2575 123.9 19.2575C121.953 19.2575 120.417 18.858 119.293 18.0589C118.174 17.254 117.535 16.1768 117.375 14.8274L121.663 14.7209C121.758 15.218 122.003 15.5968 122.4 15.8572C122.796 16.1177 123.302 16.2479 123.918 16.2479C124.474 16.2479 124.927 16.1443 125.276 15.9371C125.625 15.73 125.803 15.4548 125.809 15.1115C125.803 14.8037 125.667 14.5581 125.4 14.3746C125.134 14.1853 124.717 14.0373 124.149 13.9308L121.769 13.478C120.402 13.2294 119.384 12.7707 118.715 12.1019C118.047 11.4272 117.715 10.569 117.721 9.52734C117.715 8.61589 117.958 7.83759 118.449 7.19247C118.94 6.54143 119.639 6.04427 120.544 5.70099C121.45 5.35772 122.518 5.18608 123.749 5.18608C125.596 5.18608 127.052 5.57375 128.117 6.34908C129.182 7.11849 129.771 8.17791 129.884 9.52734Z" fill="white"/>
    </svg>
    