<svg width="228" height="26" viewBox="0 0 228 26" fill="none" xmlns="http://www.w3.org/2000/svg">
<path d="M0.376065 20V1.81818H7.88672C9.24799 1.81818 10.4228 2.08452 11.4112 2.61719C12.4055 3.14394 13.172 3.8808 13.7106 4.82777C14.2492 5.76882 14.5185 6.86375 14.5185 8.11257C14.5185 9.36731 14.2433 10.4652 13.6928 11.4062C13.1483 12.3414 12.37 13.0664 11.358 13.5813C10.3459 14.0962 9.14441 14.3537 7.75355 14.3537H3.11932V10.8913H6.93679C7.59967 10.8913 8.15305 10.7759 8.59695 10.5451C9.04676 10.3143 9.38707 9.99171 9.6179 9.57741C9.84872 9.1572 9.96413 8.66892 9.96413 8.11257C9.96413 7.55031 9.84872 7.06498 9.6179 6.6566C9.38707 6.24231 9.04676 5.9227 8.59695 5.6978C8.14714 5.47289 7.59375 5.36044 6.93679 5.36044H4.7706V20H0.376065ZM16.6847 20V6.36364H20.9016V8.84943H21.0437C21.2923 7.94981 21.6977 7.28101 22.2599 6.84304C22.8222 6.39915 23.4762 6.1772 24.2219 6.1772C24.4232 6.1772 24.6303 6.192 24.8434 6.22159C25.0565 6.24526 25.2547 6.28374 25.4382 6.337V10.1101C25.2311 10.0391 24.9588 9.98284 24.6214 9.94141C24.29 9.89998 23.9941 9.87926 23.7337 9.87926C23.2188 9.87926 22.7541 9.99467 22.3398 10.2255C21.9315 10.4504 21.6089 10.767 21.3722 11.1754C21.1413 11.5779 21.0259 12.0514 21.0259 12.5959V20H16.6847ZM32.8734 20.2575C31.447 20.2575 30.216 19.9763 29.1802 19.4141C28.1504 18.8459 27.3573 18.038 26.801 16.9904C26.2505 15.9369 25.9753 14.6851 25.9753 13.2351C25.9753 11.8265 26.2535 10.5954 26.8098 9.5419C27.3662 8.48248 28.1504 7.6598 29.1625 7.07386C30.1745 6.48201 31.3671 6.18608 32.7402 6.18608C33.7109 6.18608 34.5987 6.337 35.4036 6.63885C36.2085 6.9407 36.9039 7.38755 37.4899 7.9794C38.0758 8.57126 38.5315 9.3022 38.8571 10.1722C39.1826 11.0363 39.3453 12.0277 39.3453 13.1463V14.2294H27.4934V11.7081H35.3059C35.3 11.2464 35.1905 10.8351 34.9775 10.4741C34.7644 10.113 34.4714 9.83191 34.0985 9.63068C33.7316 9.42353 33.3084 9.31996 32.829 9.31996C32.3437 9.31996 31.9087 9.42945 31.524 9.64844C31.1393 9.86151 30.8345 10.1545 30.6096 10.5273C30.3846 10.8943 30.2663 11.3116 30.2544 11.7791V14.3448C30.2544 14.9012 30.3639 15.3894 30.5829 15.8097C30.8019 16.224 31.1126 16.5465 31.5151 16.7773C31.9176 17.0082 32.397 17.1236 32.9533 17.1236C33.338 17.1236 33.6872 17.0703 34.0009 16.9638C34.3146 16.8572 34.5839 16.7004 34.8088 16.4933C35.0337 16.2861 35.2024 16.0316 35.3148 15.7298L39.301 15.8452C39.1352 16.7389 38.7712 17.5172 38.209 18.18C37.6526 18.837 36.9217 19.349 36.0162 19.7159C35.1106 20.0769 34.063 20.2575 32.8734 20.2575ZM54.4244 6.36364L49.7457 20H44.7741L40.1044 6.36364H44.6765L47.1889 15.7564H47.331L49.8523 6.36364H54.4244ZM56.089 20V6.36364H60.4302V20H56.089ZM58.264 4.7745C57.6544 4.7745 57.1306 4.57327 56.6926 4.17081C56.2547 3.76243 56.0357 3.27119 56.0357 2.69709C56.0357 2.12891 56.2547 1.64358 56.6926 1.24112C57.1306 0.832741 57.6544 0.62855 58.264 0.62855C58.8796 0.62855 59.4034 0.832741 59.8354 1.24112C60.2734 1.64358 60.4924 2.12891 60.4924 2.69709C60.4924 3.27119 60.2734 3.76243 59.8354 4.17081C59.4034 4.57327 58.8796 4.7745 58.264 4.7745ZM75.0986 10.5273L71.1125 10.6339C71.0711 10.3498 70.9586 10.0982 70.7751 9.87926C70.5916 9.65436 70.3519 9.47976 70.056 9.35547C69.766 9.22526 69.4287 9.16016 69.0439 9.16016C68.5409 9.16016 68.1118 9.26077 67.7567 9.462C67.4075 9.66323 67.2358 9.93549 67.2417 10.2788C67.2358 10.5451 67.3424 10.7759 67.5613 10.9712C67.7863 11.1665 68.1858 11.3234 68.7599 11.4418L71.3877 11.9389C72.749 12.1993 73.761 12.6314 74.4239 13.2351C75.0927 13.8388 75.4301 14.6378 75.436 15.6321C75.4301 16.5672 75.1519 17.381 74.6015 18.0735C74.057 18.766 73.3112 19.3046 72.3643 19.6893C71.4173 20.0681 70.3342 20.2575 69.115 20.2575C67.1678 20.2575 65.6319 19.858 64.5074 19.0589C63.3888 18.254 62.7496 17.1768 62.5898 15.8274L66.8778 15.7209C66.9724 16.218 67.2181 16.5968 67.6146 16.8572C68.0112 17.1177 68.5172 17.2479 69.1327 17.2479C69.6891 17.2479 70.1418 17.1443 70.491 16.9371C70.8402 16.73 71.0178 16.4548 71.0237 16.1115C71.0178 15.8037 70.8817 15.5581 70.6153 15.3746C70.349 15.1853 69.9317 15.0373 69.3635 14.9308L66.9843 14.478C65.6171 14.2294 64.5991 13.7707 63.9303 13.1019C63.2615 12.4272 62.9301 11.569 62.936 10.5273C62.9301 9.61589 63.1727 8.83759 63.664 8.19247C64.1552 7.54143 64.8536 7.04427 65.7591 6.70099C66.6647 6.35772 67.733 6.18608 68.964 6.18608C70.8106 6.18608 72.2666 6.57375 73.3319 7.34908C74.3973 8.11849 74.9862 9.17791 75.0986 10.5273ZM81.4174 20.2308C80.5474 20.2308 79.775 20.0858 79.1003 19.7958C78.4315 19.4999 77.9018 19.056 77.5112 18.4641C77.1265 17.8664 76.9341 17.1177 76.9341 16.218C76.9341 15.4605 77.0673 14.8213 77.3336 14.3004C77.6 13.7796 77.9669 13.3564 78.4345 13.0309C78.902 12.7054 79.4406 12.4598 80.0502 12.294C80.6599 12.1224 81.3109 12.007 82.0034 11.9478C82.7787 11.8768 83.4031 11.8028 83.8766 11.7259C84.3501 11.643 84.6934 11.5276 84.9064 11.3796C85.1254 11.2257 85.2349 11.0097 85.2349 10.7315V10.6871C85.2349 10.2314 85.0781 9.87926 84.7644 9.63068C84.4507 9.3821 84.0275 9.25781 83.4949 9.25781C82.9208 9.25781 82.4591 9.3821 82.1099 9.63068C81.7607 9.87926 81.5388 10.2225 81.4441 10.6605L77.4402 10.5185C77.5585 9.68987 77.8633 8.95005 78.3546 8.29901C78.8517 7.64205 79.5324 7.12713 80.3965 6.75426C81.2665 6.37547 82.3111 6.18608 83.5304 6.18608C84.4004 6.18608 85.2024 6.28965 85.9363 6.4968C86.6702 6.69803 87.3094 6.99396 87.8539 7.38459C88.3984 7.76929 88.8186 8.24278 89.1145 8.80504C89.4164 9.36731 89.5673 10.0095 89.5673 10.7315V20H85.4835V18.1001H85.377C85.1343 18.5618 84.8236 18.9524 84.4448 19.272C84.0719 19.5916 83.631 19.8313 83.122 19.9911C82.6189 20.1509 82.0507 20.2308 81.4174 20.2308ZM82.758 17.3899C83.2256 17.3899 83.6458 17.2952 84.0186 17.1058C84.3974 16.9164 84.6993 16.656 84.9242 16.3246C85.1491 15.9872 85.2615 15.5966 85.2615 15.1527V13.8565C85.1373 13.9216 84.9863 13.9808 84.8088 14.0341C84.6371 14.0874 84.4477 14.1377 84.2406 14.185C84.0334 14.2324 83.8204 14.2738 83.6014 14.3093C83.3824 14.3448 83.1723 14.3774 82.9711 14.407C82.5627 14.4721 82.2135 14.5727 81.9235 14.7088C81.6394 14.8449 81.4204 15.0225 81.2665 15.2415C81.1185 15.4545 81.0446 15.709 81.0446 16.005C81.0446 16.4548 81.2044 16.7981 81.524 17.0348C81.8495 17.2715 82.2608 17.3899 82.758 17.3899ZM81.1955 4.67685L78.9316 4.65909C78.9316 3.45762 79.2187 2.54912 79.7928 1.93359C80.3669 1.31806 81.0653 1.00734 81.888 1.00142C82.3259 1.00142 82.6988 1.07244 83.0066 1.21449C83.3203 1.35061 83.5955 1.51338 83.8322 1.70277C84.0749 1.88624 84.2998 2.04901 84.5069 2.19105C84.72 2.32718 84.9449 2.39524 85.1816 2.39524C85.519 2.38932 85.7676 2.26503 85.9274 2.02237C86.0931 1.77379 86.1789 1.43939 86.1848 1.01918L88.4132 1.04581C88.3954 2.23544 88.1025 3.14394 87.5343 3.77131C86.9661 4.39276 86.2736 4.70644 85.4569 4.71236C85.007 4.71828 84.6253 4.65021 84.3116 4.50817C83.9979 4.36612 83.7257 4.20336 83.4949 4.01989C83.2699 3.83641 83.0539 3.67661 82.8468 3.54048C82.6396 3.39844 82.4118 3.32741 82.1632 3.32741C81.8732 3.32741 81.6394 3.44579 81.4618 3.68253C81.2843 3.91335 81.1955 4.24479 81.1955 4.67685ZM98.5872 20.2575C97.1549 20.2575 95.9238 19.9645 94.894 19.3786C93.8701 18.7867 93.08 17.964 92.5236 16.9105C91.9732 15.8511 91.698 14.623 91.698 13.2262C91.698 11.8235 91.9732 10.5954 92.5236 9.5419C93.08 8.48248 93.8701 7.6598 94.894 7.07386C95.9238 6.48201 97.1549 6.18608 98.5872 6.18608C100.019 6.18608 101.248 6.48201 102.271 7.07386C103.301 7.6598 104.091 8.48248 104.642 9.5419C105.198 10.5954 105.476 11.8235 105.476 13.2262C105.476 14.623 105.198 15.8511 104.642 16.9105C104.091 17.964 103.301 18.7867 102.271 19.3786C101.248 19.9645 100.019 20.2575 98.5872 20.2575ZM98.6138 16.9815C99.1346 16.9815 99.5756 16.8217 99.9366 16.5021C100.298 16.1825 100.573 15.7386 100.762 15.1705C100.958 14.6023 101.055 13.9453 101.055 13.1996C101.055 12.442 100.958 11.7791 100.762 11.2109C100.573 10.6428 100.298 10.1989 99.9366 9.87926C99.5756 9.55966 99.1346 9.39986 98.6138 9.39986C98.0752 9.39986 97.6195 9.55966 97.2466 9.87926C96.8797 10.1989 96.5985 10.6428 96.4032 11.2109C96.2138 11.7791 96.1191 12.442 96.1191 13.1996C96.1191 13.9453 96.2138 14.6023 96.4032 15.1705C96.5985 15.7386 96.8797 16.1825 97.2466 16.5021C97.6195 16.8217 98.0752 16.9815 98.6138 16.9815ZM118.052 20.1953C117.046 20.1953 116.131 19.9349 115.309 19.4141C114.486 18.8932 113.829 18.112 113.338 17.0703C112.846 16.0286 112.601 14.7354 112.601 13.1907C112.601 11.5868 112.855 10.2669 113.364 9.23118C113.873 8.19543 114.539 7.42898 115.362 6.93182C116.19 6.43466 117.081 6.18608 118.034 6.18608C118.75 6.18608 119.363 6.31037 119.872 6.55895C120.381 6.80161 120.801 7.11529 121.132 7.5C121.464 7.88471 121.715 8.28421 121.887 8.69851H121.976V1.81818H126.317V20H122.02V17.7894H121.887C121.704 18.2096 121.443 18.6032 121.106 18.9702C120.768 19.3371 120.345 19.633 119.836 19.858C119.333 20.0829 118.738 20.1953 118.052 20.1953ZM119.561 16.8129C120.088 16.8129 120.538 16.6649 120.911 16.369C121.283 16.0671 121.57 15.6439 121.772 15.0994C121.973 14.5549 122.074 13.9157 122.074 13.1818C122.074 12.4361 121.973 11.7939 121.772 11.2553C121.576 10.7167 121.289 10.3024 120.911 10.0124C120.538 9.72242 120.088 9.57741 119.561 9.57741C119.022 9.57741 118.567 9.72538 118.194 10.0213C117.821 10.3172 117.537 10.7345 117.342 11.2731C117.152 11.8117 117.058 12.4479 117.058 13.1818C117.058 13.9157 117.155 14.5549 117.35 15.0994C117.546 15.6439 117.827 16.0671 118.194 16.369C118.567 16.6649 119.022 16.8129 119.561 16.8129ZM135.428 20.2575C133.996 20.2575 132.765 19.9645 131.735 19.3786C130.711 18.7867 129.921 17.964 129.364 16.9105C128.814 15.8511 128.539 14.623 128.539 13.2262C128.539 11.8235 128.814 10.5954 129.364 9.5419C129.921 8.48248 130.711 7.6598 131.735 7.07386C132.765 6.48201 133.996 6.18608 135.428 6.18608C136.86 6.18608 138.088 6.48201 139.112 7.07386C140.142 7.6598 140.932 8.48248 141.483 9.5419C142.039 10.5954 142.317 11.8235 142.317 13.2262C142.317 14.623 142.039 15.8511 141.483 16.9105C140.932 17.964 140.142 18.7867 139.112 19.3786C138.088 19.9645 136.86 20.2575 135.428 20.2575ZM135.455 16.9815C135.975 16.9815 136.416 16.8217 136.777 16.5021C137.138 16.1825 137.414 15.7386 137.603 15.1705C137.798 14.6023 137.896 13.9453 137.896 13.1996C137.896 12.442 137.798 11.7791 137.603 11.2109C137.414 10.6428 137.138 10.1989 136.777 9.87926C136.416 9.55966 135.975 9.39986 135.455 9.39986C134.916 9.39986 134.46 9.55966 134.087 9.87926C133.72 10.1989 133.439 10.6428 133.244 11.2109C133.055 11.7791 132.96 12.442 132.96 13.1996C132.96 13.9453 133.055 14.6023 133.244 15.1705C133.439 15.7386 133.72 16.1825 134.087 16.5021C134.46 16.8217 134.916 16.9815 135.455 16.9815ZM157.609 6.36364V9.55966H149.007V6.36364H157.609ZM150.809 3.09659H155.15V15.712C155.15 15.9783 155.192 16.1944 155.274 16.3601C155.363 16.5199 155.49 16.6353 155.656 16.7063C155.822 16.7714 156.02 16.804 156.251 16.804C156.417 16.804 156.591 16.7892 156.775 16.7596C156.964 16.7241 157.106 16.6945 157.201 16.6708L157.858 19.8047C157.651 19.8639 157.358 19.9379 156.979 20.0266C156.606 20.1154 156.159 20.1716 155.638 20.1953C154.62 20.2427 153.747 20.1243 153.019 19.8402C152.297 19.5502 151.744 19.1004 151.359 18.4908C150.98 17.8812 150.797 17.1147 150.809 16.1914V3.09659ZM166.052 20.2575C164.626 20.2575 163.395 19.9763 162.359 19.4141C161.329 18.8459 160.536 18.038 159.98 16.9904C159.429 15.9369 159.154 14.6851 159.154 13.2351C159.154 11.8265 159.432 10.5954 159.989 9.5419C160.545 8.48248 161.329 7.6598 162.341 7.07386C163.353 6.48201 164.546 6.18608 165.919 6.18608C166.89 6.18608 167.777 6.337 168.582 6.63885C169.387 6.9407 170.083 7.38755 170.669 7.9794C171.255 8.57126 171.71 9.3022 172.036 10.1722C172.361 11.0363 172.524 12.0277 172.524 13.1463V14.2294H160.672V11.7081H168.485C168.479 11.2464 168.369 10.8351 168.156 10.4741C167.943 10.113 167.65 9.83191 167.277 9.63068C166.91 9.42353 166.487 9.31996 166.008 9.31996C165.522 9.31996 165.087 9.42945 164.703 9.64844C164.318 9.86151 164.013 10.1545 163.788 10.5273C163.563 10.8943 163.445 11.3116 163.433 11.7791V14.3448C163.433 14.9012 163.543 15.3894 163.762 15.8097C163.981 16.224 164.291 16.5465 164.694 16.7773C165.096 17.0082 165.576 17.1236 166.132 17.1236C166.517 17.1236 166.866 17.0703 167.18 16.9638C167.493 16.8572 167.763 16.7004 167.987 16.4933C168.212 16.2861 168.381 16.0316 168.494 15.7298L172.48 15.8452C172.314 16.7389 171.95 17.5172 171.388 18.18C170.831 18.837 170.1 19.349 169.195 19.7159C168.289 20.0769 167.242 20.2575 166.052 20.2575ZM174.741 20V6.36364H178.869V8.86719H179.02C179.305 8.03859 179.784 7.38459 180.459 6.90518C181.133 6.42578 181.938 6.18608 182.873 6.18608C183.82 6.18608 184.631 6.42874 185.306 6.91406C185.981 7.39938 186.41 8.05043 186.593 8.86719H186.735C186.99 8.05634 187.487 7.40826 188.227 6.92294C188.967 6.4317 189.84 6.18608 190.846 6.18608C192.136 6.18608 193.184 6.60038 193.988 7.42898C194.793 8.25166 195.196 9.3821 195.196 10.8203V20H190.855V11.8146C190.855 11.134 190.68 10.6161 190.331 10.261C189.982 9.89998 189.529 9.71946 188.972 9.71946C188.375 9.71946 187.904 9.91477 187.561 10.3054C187.224 10.6901 187.055 11.208 187.055 11.859V20H182.882V11.7702C182.882 11.137 182.711 10.6368 182.367 10.2699C182.024 9.90294 181.571 9.71946 181.009 9.71946C180.63 9.71946 180.296 9.8112 180.006 9.99467C179.716 10.1722 179.488 10.4267 179.322 10.7582C179.162 11.0896 179.083 11.4802 179.083 11.93V20H174.741ZM197.886 25.1136V6.36364H202.183V8.69851H202.316C202.493 8.28421 202.745 7.88471 203.07 7.5C203.402 7.11529 203.822 6.80161 204.331 6.55895C204.846 6.31037 205.462 6.18608 206.178 6.18608C207.125 6.18608 208.01 6.43466 208.832 6.93182C209.661 7.42898 210.33 8.19543 210.839 9.23118C211.348 10.2669 211.602 11.5868 211.602 13.1907C211.602 14.7354 211.356 16.0286 210.865 17.0703C210.38 18.112 209.723 18.8932 208.894 19.4141C208.072 19.9349 207.157 20.1953 206.151 20.1953C205.465 20.1953 204.87 20.0829 204.367 19.858C203.864 19.633 203.44 19.3371 203.097 18.9702C202.76 18.6032 202.499 18.2096 202.316 17.7894H202.227V25.1136H197.886ZM202.138 13.1818C202.138 13.9157 202.236 14.5549 202.431 15.0994C202.633 15.6439 202.92 16.0671 203.292 16.369C203.671 16.6649 204.124 16.8129 204.651 16.8129C205.183 16.8129 205.636 16.6649 206.009 16.369C206.382 16.0671 206.663 15.6439 206.852 15.0994C207.048 14.5549 207.145 13.9157 207.145 13.1818C207.145 12.4479 207.048 11.8117 206.852 11.2731C206.663 10.7345 206.382 10.3172 206.009 10.0213C205.642 9.72538 205.189 9.57741 204.651 9.57741C204.118 9.57741 203.665 9.72242 203.292 10.0124C202.92 10.3024 202.633 10.7167 202.431 11.2553C202.236 11.7939 202.138 12.4361 202.138 13.1818ZM220.242 20.2575C218.81 20.2575 217.579 19.9645 216.549 19.3786C215.525 18.7867 214.735 17.964 214.179 16.9105C213.628 15.8511 213.353 14.623 213.353 13.2262C213.353 11.8235 213.628 10.5954 214.179 9.5419C214.735 8.48248 215.525 7.6598 216.549 7.07386C217.579 6.48201 218.81 6.18608 220.242 6.18608C221.675 6.18608 222.903 6.48201 223.927 7.07386C224.957 7.6598 225.747 8.48248 226.297 9.5419C226.853 10.5954 227.132 11.8235 227.132 13.2262C227.132 14.623 226.853 15.8511 226.297 16.9105C225.747 17.964 224.957 18.7867 223.927 19.3786C222.903 19.9645 221.675 20.2575 220.242 20.2575ZM220.269 16.9815C220.79 16.9815 221.231 16.8217 221.592 16.5021C221.953 16.1825 222.228 15.7386 222.418 15.1705C222.613 14.6023 222.71 13.9453 222.71 13.1996C222.71 12.442 222.613 11.7791 222.418 11.2109C222.228 10.6428 221.953 10.1989 221.592 9.87926C221.231 9.55966 220.79 9.39986 220.269 9.39986C219.73 9.39986 219.275 9.55966 218.902 9.87926C218.535 10.1989 218.254 10.6428 218.059 11.2109C217.869 11.7791 217.774 12.442 217.774 13.1996C217.774 13.9453 217.869 14.6023 218.059 15.1705C218.254 15.7386 218.535 16.1825 218.902 16.5021C219.275 16.8217 219.73 16.9815 220.269 16.9815Z" fill="white"/>
</svg>
