<svg width="476" height="31" viewBox="0 0 476 31" fill="none" xmlns="http://www.w3.org/2000/svg">
<path d="M0.676447 9.57919V6.81818H15.1828V9.57919H9.56317V25H6.29612V9.57919H0.676447ZM21.8967 25.2663C20.5295 25.2663 19.3488 24.9822 18.3544 24.4141C17.366 23.84 16.6055 23.0291 16.0728 21.9815C15.5402 20.928 15.2738 19.6881 15.2738 18.2617C15.2738 16.859 15.5402 15.628 16.0728 14.5685C16.6114 13.5032 17.3631 12.6746 18.3278 12.0827C19.2925 11.485 20.4259 11.1861 21.728 11.1861C22.5685 11.1861 23.3616 11.3222 24.1073 11.5945C24.8589 11.8608 25.5218 12.2751 26.0959 12.8374C26.6759 13.3996 27.1317 14.1158 27.4631 14.9858C27.7946 15.8499 27.9603 16.8797 27.9603 18.0753V19.0607H16.7831V16.8945H24.8797C24.8737 16.279 24.7406 15.7315 24.4802 15.2521C24.2197 14.7668 23.8558 14.3851 23.3882 14.1069C22.9265 13.8287 22.3879 13.6896 21.7724 13.6896C21.1155 13.6896 20.5384 13.8494 20.0412 14.169C19.5441 14.4827 19.1564 14.897 18.8782 15.4119C18.606 15.9209 18.4669 16.4802 18.461 17.0898V18.9808C18.461 19.7739 18.606 20.4545 18.896 21.0227C19.186 21.585 19.5914 22.017 20.1123 22.3189C20.6331 22.6148 21.2427 22.7628 21.9411 22.7628C22.4087 22.7628 22.8318 22.6977 23.2106 22.5675C23.5894 22.4313 23.9179 22.2331 24.1961 21.9727C24.4742 21.7122 24.6843 21.3897 24.8264 21.005L27.8271 21.3423C27.6377 22.1354 27.2767 22.8279 26.744 23.4197C26.2173 24.0057 25.5425 24.4614 24.7199 24.7869C23.8972 25.1065 22.9561 25.2663 21.8967 25.2663ZM30.6791 25V11.3636H33.7952V13.6364H33.9373C34.1859 12.8492 34.612 12.2425 35.2157 11.8164C35.8253 11.3844 36.5207 11.1683 37.302 11.1683C37.4795 11.1683 37.6778 11.1772 37.8968 11.195C38.1217 11.2068 38.3081 11.2275 38.4561 11.2571V14.2134C38.32 14.1661 38.1039 14.1246 37.808 14.0891C37.518 14.0477 37.2369 14.027 36.9646 14.027C36.3787 14.027 35.8519 14.1542 35.3844 14.4087C34.9227 14.6573 34.5587 15.0036 34.2924 15.4474C34.0261 15.8913 33.8929 16.4033 33.8929 16.9833V25H30.6791ZM40.5912 25V11.3636H43.663V13.6808H43.8228C44.1068 12.8995 44.5774 12.2899 45.2343 11.8519C45.8913 11.408 46.6755 11.1861 47.587 11.1861C48.5103 11.1861 49.2885 11.411 49.9218 11.8608C50.561 12.3047 51.0108 12.9113 51.2713 13.6808H51.4133C51.7152 12.9232 52.2242 12.3195 52.9403 11.8697C53.6624 11.4139 54.5176 11.1861 55.506 11.1861C56.7607 11.1861 57.7846 11.5826 58.5777 12.3757C59.3708 13.1688 59.7674 14.3259 59.7674 15.8469V25H56.5447V16.3441C56.5447 15.4978 56.3198 14.8793 55.87 14.4886C55.4202 14.0921 54.8697 13.8938 54.2187 13.8938C53.4434 13.8938 52.8367 14.1365 52.3987 14.6218C51.9667 15.1012 51.7507 15.7256 51.7507 16.495V25H48.599V16.2109C48.599 15.5066 48.386 14.9444 47.9598 14.5241C47.5396 14.1039 46.9892 13.8938 46.3085 13.8938C45.8469 13.8938 45.4267 14.0122 45.0479 14.2489C44.6691 14.4798 44.3673 14.8082 44.1424 15.2344C43.9175 15.6546 43.805 16.1458 43.805 16.7081V25H40.5912ZM68.9759 25.2663C67.6442 25.2663 66.4901 24.9734 65.5135 24.3874C64.537 23.8015 63.7794 22.9818 63.2408 21.9283C62.7081 20.8748 62.4418 19.6437 62.4418 18.2351C62.4418 16.8265 62.7081 15.5924 63.2408 14.533C63.7794 13.4736 64.537 12.6509 65.5135 12.065C66.4901 11.479 67.6442 11.1861 68.9759 11.1861C70.3076 11.1861 71.4617 11.479 72.4383 12.065C73.4148 12.6509 74.1694 13.4736 74.7021 14.533C75.2407 15.5924 75.51 16.8265 75.51 18.2351C75.51 19.6437 75.2407 20.8748 74.7021 21.9283C74.1694 22.9818 73.4148 23.8015 72.4383 24.3874C71.4617 24.9734 70.3076 25.2663 68.9759 25.2663ZM68.9937 22.6918C69.7157 22.6918 70.3194 22.4935 70.8047 22.0969C71.2901 21.6945 71.6511 21.1559 71.8878 20.4812C72.1305 19.8065 72.2518 19.0548 72.2518 18.2262C72.2518 17.3917 72.1305 16.6371 71.8878 15.9624C71.6511 15.2817 71.2901 14.7402 70.8047 14.3377C70.3194 13.9353 69.7157 13.734 68.9937 13.734C68.2538 13.734 67.6383 13.9353 67.1471 14.3377C66.6617 14.7402 66.2977 15.2817 66.0551 15.9624C65.8183 16.6371 65.7 17.3917 65.7 18.2262C65.7 19.0548 65.8183 19.8065 66.0551 20.4812C66.2977 21.1559 66.6617 21.6945 67.1471 22.0969C67.6383 22.4935 68.2538 22.6918 68.9937 22.6918ZM89.0154 14.968L86.0857 15.2876C86.0029 14.9917 85.8579 14.7135 85.6507 14.4531C85.4495 14.1927 85.1772 13.9826 84.8339 13.8228C84.4907 13.663 84.0704 13.5831 83.5733 13.5831C82.9045 13.5831 82.3422 13.7281 81.8865 14.0181C81.4367 14.3081 81.2147 14.6839 81.2207 15.1456C81.2147 15.5421 81.3597 15.8647 81.6557 16.1133C81.9575 16.3619 82.4547 16.5661 83.1472 16.7259L85.4731 17.223C86.7634 17.5012 87.7222 17.9421 88.3496 18.5458C88.9829 19.1495 89.3025 19.9396 89.3084 20.9162C89.3025 21.7744 89.0509 22.532 88.5538 23.1889C88.0625 23.84 87.3789 24.349 86.503 24.7159C85.627 25.0829 84.6209 25.2663 83.4845 25.2663C81.8155 25.2663 80.472 24.9171 79.454 24.2188C78.436 23.5144 77.8293 22.5349 77.634 21.2802L80.7679 20.9783C80.9099 21.5939 81.2118 22.0585 81.6734 22.3722C82.1351 22.6858 82.7358 22.8427 83.4756 22.8427C84.2391 22.8427 84.8517 22.6858 85.3133 22.3722C85.7809 22.0585 86.0147 21.6708 86.0147 21.2092C86.0147 20.8185 85.8638 20.496 85.5619 20.2415C85.266 19.987 84.8043 19.7917 84.177 19.6555L81.851 19.1673C80.543 18.895 79.5753 18.4363 78.9479 17.7912C78.3206 17.1402 78.0098 16.3175 78.0158 15.3232C78.0098 14.4827 78.2377 13.7547 78.6994 13.1392C79.1669 12.5178 79.815 12.0384 80.6436 11.701C81.4781 11.3577 82.4399 11.1861 83.5289 11.1861C85.1269 11.1861 86.3846 11.5264 87.302 12.207C88.2253 12.8877 88.7964 13.808 89.0154 14.968ZM103.22 25.2397C102.149 25.2397 101.19 24.9645 100.344 24.4141C99.4972 23.8636 98.8284 23.0646 98.3371 22.017C97.8459 20.9695 97.6003 19.697 97.6003 18.1996C97.6003 16.6844 97.8489 15.406 98.346 14.3643C98.8491 13.3168 99.5268 12.5266 100.379 11.994C101.231 11.4554 102.181 11.1861 103.229 11.1861C104.028 11.1861 104.685 11.3222 105.2 11.5945C105.715 11.8608 106.123 12.1834 106.425 12.5621C106.727 12.935 106.96 13.2872 107.126 13.6186H107.259V6.81818H110.482V25H107.322V22.8516H107.126C106.96 23.183 106.721 23.5352 106.407 23.908C106.093 24.275 105.679 24.5887 105.164 24.8491C104.649 25.1095 104.001 25.2397 103.22 25.2397ZM104.117 22.603C104.797 22.603 105.377 22.4195 105.857 22.0526C106.336 21.6797 106.7 21.1618 106.949 20.4989C107.197 19.8361 107.322 19.0637 107.322 18.1818C107.322 17.3 107.197 16.5335 106.949 15.8825C106.706 15.2314 106.345 14.7254 105.866 14.3643C105.392 14.0033 104.809 13.8228 104.117 13.8228C103.4 13.8228 102.803 14.0092 102.323 14.3821C101.844 14.755 101.483 15.2699 101.24 15.9268C100.998 16.5838 100.876 17.3355 100.876 18.1818C100.876 19.0341 100.998 19.7946 101.24 20.4634C101.489 21.1263 101.853 21.6501 102.332 22.0348C102.817 22.4136 103.412 22.603 104.117 22.603ZM119.944 25.2663C118.576 25.2663 117.396 24.9822 116.401 24.4141C115.413 23.84 114.652 23.0291 114.12 21.9815C113.587 20.928 113.321 19.6881 113.321 18.2617C113.321 16.859 113.587 15.628 114.12 14.5685C114.658 13.5032 115.41 12.6746 116.375 12.0827C117.339 11.485 118.473 11.1861 119.775 11.1861C120.615 11.1861 121.408 11.3222 122.154 11.5945C122.906 11.8608 123.569 12.2751 124.143 12.8374C124.723 13.3996 125.179 14.1158 125.51 14.9858C125.841 15.8499 126.007 16.8797 126.007 18.0753V19.0607H114.83V16.8945H122.927C122.921 16.279 122.787 15.7315 122.527 15.2521C122.267 14.7668 121.903 14.3851 121.435 14.1069C120.973 13.8287 120.435 13.6896 119.819 13.6896C119.162 13.6896 118.585 13.8494 118.088 14.169C117.591 14.4827 117.203 14.897 116.925 15.4119C116.653 15.9209 116.514 16.4802 116.508 17.0898V18.9808C116.508 19.7739 116.653 20.4545 116.943 21.0227C117.233 21.585 117.638 22.017 118.159 22.3189C118.68 22.6148 119.29 22.7628 119.988 22.7628C120.456 22.7628 120.879 22.6977 121.258 22.5675C121.636 22.4313 121.965 22.2331 122.243 21.9727C122.521 21.7122 122.731 21.3897 122.873 21.005L125.874 21.3423C125.685 22.1354 125.324 22.8279 124.791 23.4197C124.264 24.0057 123.589 24.4614 122.767 24.7869C121.944 25.1065 121.003 25.2663 119.944 25.2663ZM146.53 6.81818H149.824V18.6967C149.824 19.9988 149.516 21.1441 148.901 22.1325C148.291 23.1209 147.433 23.8932 146.326 24.4496C145.22 25 143.926 25.2752 142.447 25.2752C140.961 25.2752 139.665 25 138.558 24.4496C137.451 23.8932 136.593 23.1209 135.984 22.1325C135.374 21.1441 135.069 19.9988 135.069 18.6967V6.81818H138.363V18.4215C138.363 19.1791 138.529 19.8538 138.86 20.4457C139.197 21.0375 139.671 21.5021 140.28 21.8395C140.89 22.1709 141.612 22.3366 142.447 22.3366C143.281 22.3366 144.003 22.1709 144.613 21.8395C145.228 21.5021 145.702 21.0375 146.033 20.4457C146.365 19.8538 146.53 19.1791 146.53 18.4215V6.81818ZM164.04 14.968L161.11 15.2876C161.027 14.9917 160.882 14.7135 160.675 14.4531C160.474 14.1927 160.202 13.9826 159.858 13.8228C159.515 13.663 159.095 13.5831 158.598 13.5831C157.929 13.5831 157.367 13.7281 156.911 14.0181C156.461 14.3081 156.239 14.6839 156.245 15.1456C156.239 15.5421 156.384 15.8647 156.68 16.1133C156.982 16.3619 157.479 16.5661 158.172 16.7259L160.498 17.223C161.788 17.5012 162.747 17.9421 163.374 18.5458C164.007 19.1495 164.327 19.9396 164.333 20.9162C164.327 21.7744 164.075 22.532 163.578 23.1889C163.087 23.84 162.403 24.349 161.527 24.7159C160.651 25.0829 159.645 25.2663 158.509 25.2663C156.84 25.2663 155.496 24.9171 154.478 24.2188C153.46 23.5144 152.854 22.5349 152.658 21.2802L155.792 20.9783C155.934 21.5939 156.236 22.0585 156.698 22.3722C157.159 22.6858 157.76 22.8427 158.5 22.8427C159.264 22.8427 159.876 22.6858 160.338 22.3722C160.805 22.0585 161.039 21.6708 161.039 21.2092C161.039 20.8185 160.888 20.496 160.586 20.2415C160.29 19.987 159.829 19.7917 159.201 19.6555L156.875 19.1673C155.567 18.895 154.6 18.4363 153.972 17.7912C153.345 17.1402 153.034 16.3175 153.04 15.3232C153.034 14.4827 153.262 13.7547 153.724 13.1392C154.191 12.5178 154.839 12.0384 155.668 11.701C156.503 11.3577 157.464 11.1861 158.553 11.1861C160.151 11.1861 161.409 11.5264 162.326 12.207C163.25 12.8877 163.821 13.808 164.04 14.968ZM172.931 25.2663C171.599 25.2663 170.445 24.9734 169.469 24.3874C168.492 23.8015 167.734 22.9818 167.196 21.9283C166.663 20.8748 166.397 19.6437 166.397 18.2351C166.397 16.8265 166.663 15.5924 167.196 14.533C167.734 13.4736 168.492 12.6509 169.469 12.065C170.445 11.479 171.599 11.1861 172.931 11.1861C174.263 11.1861 175.417 11.479 176.393 12.065C177.37 12.6509 178.125 13.4736 178.657 14.533C179.196 15.5924 179.465 16.8265 179.465 18.2351C179.465 19.6437 179.196 20.8748 178.657 21.9283C178.125 22.9818 177.37 23.8015 176.393 24.3874C175.417 24.9734 174.263 25.2663 172.931 25.2663ZM172.949 22.6918C173.671 22.6918 174.274 22.4935 174.76 22.0969C175.245 21.6945 175.606 21.1559 175.843 20.4812C176.086 19.8065 176.207 19.0548 176.207 18.2262C176.207 17.3917 176.086 16.6371 175.843 15.9624C175.606 15.2817 175.245 14.7402 174.76 14.3377C174.274 13.9353 173.671 13.734 172.949 13.734C172.209 13.734 171.593 13.9353 171.102 14.3377C170.617 14.7402 170.253 15.2817 170.01 15.9624C169.773 16.6371 169.655 17.3917 169.655 18.2262C169.655 19.0548 169.773 19.8065 170.01 20.4812C170.253 21.1559 170.617 21.6945 171.102 22.0969C171.593 22.4935 172.209 22.6918 172.949 22.6918ZM192.709 0.958806V30.8594H189.726V0.958806H192.709ZM203.697 25V6.81818H210.515C211.912 6.81818 213.084 7.0786 214.031 7.59943C214.984 8.12026 215.703 8.83641 216.188 9.74787C216.679 10.6534 216.925 11.6832 216.925 12.8374C216.925 14.0033 216.679 15.0391 216.188 15.9446C215.697 16.8501 214.972 17.5633 214.013 18.0842C213.054 18.5991 211.874 18.8565 210.471 18.8565H205.952V16.1488H210.027C210.844 16.1488 211.513 16.0067 212.033 15.7227C212.554 15.4386 212.939 15.0479 213.188 14.5508C213.442 14.0536 213.569 13.4825 213.569 12.8374C213.569 12.1922 213.442 11.6241 213.188 11.1328C212.939 10.6416 212.551 10.2598 212.025 9.98757C211.504 9.7094 210.832 9.57031 210.009 9.57031H206.991V25H203.697ZM225.397 25.2663C224.065 25.2663 222.911 24.9734 221.934 24.3874C220.958 23.8015 220.2 22.9818 219.662 21.9283C219.129 20.8748 218.863 19.6437 218.863 18.2351C218.863 16.8265 219.129 15.5924 219.662 14.533C220.2 13.4736 220.958 12.6509 221.934 12.065C222.911 11.479 224.065 11.1861 225.397 11.1861C226.728 11.1861 227.883 11.479 228.859 12.065C229.836 12.6509 230.59 13.4736 231.123 14.533C231.662 15.5924 231.931 16.8265 231.931 18.2351C231.931 19.6437 231.662 20.8748 231.123 21.9283C230.59 22.9818 229.836 23.8015 228.859 24.3874C227.883 24.9734 226.728 25.2663 225.397 25.2663ZM225.415 22.6918C226.137 22.6918 226.74 22.4935 227.226 22.0969C227.711 21.6945 228.072 21.1559 228.309 20.4812C228.551 19.8065 228.673 19.0548 228.673 18.2262C228.673 17.3917 228.551 16.6371 228.309 15.9624C228.072 15.2817 227.711 14.7402 227.226 14.3377C226.74 13.9353 226.137 13.734 225.415 13.734C224.675 13.734 224.059 13.9353 223.568 14.3377C223.083 14.7402 222.719 15.2817 222.476 15.9624C222.239 16.6371 222.121 17.3917 222.121 18.2262C222.121 19.0548 222.239 19.8065 222.476 20.4812C222.719 21.1559 223.083 21.6945 223.568 22.0969C224.059 22.4935 224.675 22.6918 225.415 22.6918ZM237.872 6.81818V25H234.659V6.81818H237.872ZM241.177 25V11.3636H244.391V25H241.177ZM241.559 9.57031L243.548 5.51314H246.69L243.965 9.57031H241.559ZM254.505 11.3636V13.8494H246.666V11.3636H254.505ZM248.601 8.09659H251.815V20.8984C251.815 21.3305 251.88 21.6619 252.01 21.8928C252.146 22.1177 252.324 22.2715 252.543 22.3544C252.762 22.4373 253.005 22.4787 253.271 22.4787C253.472 22.4787 253.656 22.4639 253.821 22.4343C253.993 22.4047 254.123 22.3781 254.212 22.3544L254.754 24.8668C254.582 24.926 254.336 24.9911 254.017 25.0621C253.703 25.1332 253.318 25.1746 252.863 25.1864C252.058 25.2101 251.333 25.0888 250.688 24.8224C250.042 24.5502 249.53 24.13 249.152 23.5618C248.779 22.9936 248.595 22.2834 248.601 21.4311V8.09659ZM257.193 25V11.3636H260.407V25H257.193ZM258.809 9.42827C258.3 9.42827 257.862 9.25959 257.495 8.92223C257.128 8.57895 256.944 8.16761 256.944 7.68821C256.944 7.20289 257.128 6.79155 257.495 6.45419C257.862 6.11091 258.3 5.93928 258.809 5.93928C259.323 5.93928 259.761 6.11091 260.122 6.45419C260.489 6.79155 260.673 7.20289 260.673 7.68821C260.673 8.16761 260.489 8.57895 260.122 8.92223C259.761 9.25959 259.323 9.42827 258.809 9.42827ZM269.659 25.2663C268.298 25.2663 267.129 24.9674 266.153 24.3697C265.182 23.7719 264.433 22.9463 263.907 21.8928C263.386 20.8333 263.125 19.6141 263.125 18.2351C263.125 16.8501 263.392 15.628 263.924 14.5685C264.457 13.5032 265.209 12.6746 266.179 12.0827C267.156 11.485 268.31 11.1861 269.642 11.1861C270.749 11.1861 271.728 11.3903 272.58 11.7987C273.438 12.2011 274.122 12.7723 274.631 13.5121C275.14 14.246 275.43 15.1042 275.501 16.0866H272.429C272.305 15.4297 272.009 14.8822 271.542 14.4442C271.08 14.0004 270.461 13.7784 269.686 13.7784C269.029 13.7784 268.452 13.956 267.955 14.3111C267.458 14.6603 267.07 15.1634 266.792 15.8203C266.52 16.4773 266.384 17.2644 266.384 18.1818C266.384 19.111 266.52 19.91 266.792 20.5788C267.064 21.2417 267.446 21.7537 267.937 22.1147C268.434 22.4698 269.017 22.6474 269.686 22.6474C270.16 22.6474 270.583 22.5586 270.956 22.381C271.334 22.1976 271.651 21.9342 271.906 21.5909C272.16 21.2476 272.335 20.8304 272.429 20.3391H275.501C275.424 21.3039 275.14 22.1591 274.649 22.9048C274.158 23.6446 273.489 24.2247 272.642 24.6449C271.796 25.0592 270.802 25.2663 269.659 25.2663ZM282.064 25.2752C281.2 25.2752 280.422 25.1213 279.729 24.8136C279.043 24.4999 278.498 24.0382 278.096 23.4286C277.699 22.819 277.501 22.0674 277.501 21.1737C277.501 20.4042 277.643 19.768 277.927 19.2649C278.211 18.7618 278.599 18.3594 279.09 18.0575C279.581 17.7557 280.135 17.5278 280.75 17.3739C281.372 17.2141 282.014 17.0987 282.677 17.0277C283.476 16.9448 284.124 16.8709 284.621 16.8058C285.118 16.7347 285.479 16.6282 285.704 16.4862C285.935 16.3382 286.05 16.1103 286.05 15.8026V15.7493C286.05 15.0805 285.852 14.5626 285.455 14.1957C285.059 13.8287 284.488 13.6452 283.742 13.6452C282.955 13.6452 282.33 13.8169 281.869 14.1602C281.413 14.5034 281.105 14.9089 280.945 15.3764L277.945 14.9503C278.181 14.1217 278.572 13.4292 279.117 12.8729C279.661 12.3106 280.327 11.8904 281.114 11.6122C281.901 11.3281 282.771 11.1861 283.724 11.1861C284.381 11.1861 285.035 11.263 285.686 11.4169C286.337 11.5708 286.932 11.8253 287.471 12.1804C288.009 12.5296 288.441 13.006 288.767 13.6097C289.098 14.2134 289.264 14.968 289.264 15.8736V25H286.174V23.1268H286.068C285.873 23.5056 285.597 23.8607 285.242 24.1921C284.893 24.5176 284.452 24.781 283.92 24.9822C283.393 25.1776 282.774 25.2752 282.064 25.2752ZM282.899 22.9137C283.544 22.9137 284.103 22.7865 284.576 22.532C285.05 22.2715 285.414 21.9283 285.668 21.5021C285.929 21.076 286.059 20.6114 286.059 20.1083V18.5014C285.958 18.5843 285.787 18.6612 285.544 18.7322C285.307 18.8033 285.041 18.8654 284.745 18.9187C284.449 18.9719 284.156 19.0193 283.866 19.0607C283.576 19.1022 283.325 19.1377 283.112 19.1673C282.632 19.2324 282.203 19.3389 281.824 19.4869C281.446 19.6348 281.147 19.842 280.928 20.1083C280.709 20.3687 280.599 20.7061 280.599 21.1204C280.599 21.7122 280.815 22.1591 281.247 22.4609C281.679 22.7628 282.23 22.9137 282.899 22.9137ZM303.757 25.2397C302.686 25.2397 301.727 24.9645 300.881 24.4141C300.034 23.8636 299.365 23.0646 298.874 22.017C298.383 20.9695 298.137 19.697 298.137 18.1996C298.137 16.6844 298.386 15.406 298.883 14.3643C299.386 13.3168 300.064 12.5266 300.916 11.994C301.768 11.4554 302.718 11.1861 303.766 11.1861C304.565 11.1861 305.222 11.3222 305.737 11.5945C306.252 11.8608 306.66 12.1834 306.962 12.5621C307.264 12.935 307.498 13.2872 307.663 13.6186H307.796V6.81818H311.019V25H307.859V22.8516H307.663C307.498 23.183 307.258 23.5352 306.944 23.908C306.631 24.275 306.216 24.5887 305.701 24.8491C305.186 25.1095 304.538 25.2397 303.757 25.2397ZM304.654 22.603C305.334 22.603 305.914 22.4195 306.394 22.0526C306.873 21.6797 307.237 21.1618 307.486 20.4989C307.734 19.8361 307.859 19.0637 307.859 18.1818C307.859 17.3 307.734 16.5335 307.486 15.8825C307.243 15.2314 306.882 14.7254 306.403 14.3643C305.929 14.0033 305.346 13.8228 304.654 13.8228C303.938 13.8228 303.34 14.0092 302.86 14.3821C302.381 14.755 302.02 15.2699 301.777 15.9268C301.535 16.5838 301.413 17.3355 301.413 18.1818C301.413 19.0341 301.535 19.7946 301.777 20.4634C302.026 21.1263 302.39 21.6501 302.869 22.0348C303.355 22.4136 303.949 22.603 304.654 22.603ZM320.481 25.2663C319.114 25.2663 317.933 24.9822 316.938 24.4141C315.95 23.84 315.189 23.0291 314.657 21.9815C314.124 20.928 313.858 19.6881 313.858 18.2617C313.858 16.859 314.124 15.628 314.657 14.5685C315.195 13.5032 315.947 12.6746 316.912 12.0827C317.877 11.485 319.01 11.1861 320.312 11.1861C321.152 11.1861 321.946 11.3222 322.691 11.5945C323.443 11.8608 324.106 12.2751 324.68 12.8374C325.26 13.3996 325.716 14.1158 326.047 14.9858C326.379 15.8499 326.544 16.8797 326.544 18.0753V19.0607H315.367V16.8945H323.464C323.458 16.279 323.325 15.7315 323.064 15.2521C322.804 14.7668 322.44 14.3851 321.972 14.1069C321.511 13.8287 320.972 13.6896 320.356 13.6896C319.699 13.6896 319.122 13.8494 318.625 14.169C318.128 14.4827 317.74 14.897 317.462 15.4119C317.19 15.9209 317.051 16.4802 317.045 17.0898V18.9808C317.045 19.7739 317.19 20.4545 317.48 21.0227C317.77 21.585 318.175 22.017 318.696 22.3189C319.217 22.6148 319.827 22.7628 320.525 22.7628C320.993 22.7628 321.416 22.6977 321.795 22.5675C322.173 22.4313 322.502 22.2331 322.78 21.9727C323.058 21.7122 323.268 21.3897 323.41 21.005L326.411 21.3423C326.222 22.1354 325.861 22.8279 325.328 23.4197C324.801 24.0057 324.127 24.4614 323.304 24.7869C322.481 25.1065 321.54 25.2663 320.481 25.2663ZM335.606 25V6.81818H342.424C343.821 6.81818 344.993 7.0786 345.94 7.59943C346.893 8.12026 347.612 8.83641 348.097 9.74787C348.589 10.6534 348.834 11.6832 348.834 12.8374C348.834 14.0033 348.589 15.0391 348.097 15.9446C347.606 16.8501 346.881 17.5633 345.922 18.0842C344.964 18.5991 343.783 18.8565 342.38 18.8565H337.861V16.1488H341.936C342.753 16.1488 343.422 16.0067 343.943 15.7227C344.463 15.4386 344.848 15.0479 345.097 14.5508C345.351 14.0536 345.478 13.4825 345.478 12.8374C345.478 12.1922 345.351 11.6241 345.097 11.1328C344.848 10.6416 344.46 10.2598 343.934 9.98757C343.413 9.7094 342.741 9.57031 341.918 9.57031H338.9V25H335.606ZM351.553 25V11.3636H354.669V13.6364H354.811C355.06 12.8492 355.486 12.2425 356.09 11.8164C356.699 11.3844 357.395 11.1683 358.176 11.1683C358.354 11.1683 358.552 11.1772 358.771 11.195C358.996 11.2068 359.182 11.2275 359.33 11.2571V14.2134C359.194 14.1661 358.978 14.1246 358.682 14.0891C358.392 14.0477 358.111 14.027 357.839 14.027C357.253 14.027 356.726 14.1542 356.258 14.4087C355.797 14.6573 355.433 15.0036 355.166 15.4474C354.9 15.8913 354.767 16.4033 354.767 16.9833V25H351.553ZM361.465 25V11.3636H364.679V25H361.465ZM363.081 9.42827C362.572 9.42827 362.134 9.25959 361.767 8.92223C361.4 8.57895 361.217 8.16761 361.217 7.68821C361.217 7.20289 361.4 6.79155 361.767 6.45419C362.134 6.11091 362.572 5.93928 363.081 5.93928C363.596 5.93928 364.034 6.11091 364.395 6.45419C364.762 6.79155 364.945 7.20289 364.945 7.68821C364.945 8.16761 364.762 8.57895 364.395 8.92223C364.034 9.25959 363.596 9.42827 363.081 9.42827ZM380.164 11.3636L375.308 25H371.757L366.901 11.3636H370.328L373.461 21.4933H373.603L376.746 11.3636H380.164ZM385.921 25.2752C385.057 25.2752 384.279 25.1213 383.587 24.8136C382.9 24.4999 382.356 24.0382 381.953 23.4286C381.557 22.819 381.358 22.0674 381.358 21.1737C381.358 20.4042 381.5 19.768 381.784 19.2649C382.068 18.7618 382.456 18.3594 382.947 18.0575C383.439 17.7557 383.992 17.5278 384.608 17.3739C385.229 17.2141 385.871 17.0987 386.534 17.0277C387.333 16.9448 387.981 16.8709 388.478 16.8058C388.975 16.7347 389.336 16.6282 389.561 16.4862C389.792 16.3382 389.908 16.1103 389.908 15.8026V15.7493C389.908 15.0805 389.709 14.5626 389.313 14.1957C388.916 13.8287 388.345 13.6452 387.599 13.6452C386.812 13.6452 386.188 13.8169 385.726 14.1602C385.27 14.5034 384.963 14.9089 384.803 15.3764L381.802 14.9503C382.039 14.1217 382.43 13.4292 382.974 12.8729C383.519 12.3106 384.184 11.8904 384.972 11.6122C385.759 11.3281 386.629 11.1861 387.582 11.1861C388.239 11.1861 388.893 11.263 389.544 11.4169C390.195 11.5708 390.789 11.8253 391.328 12.1804C391.867 12.5296 392.299 13.006 392.624 13.6097C392.956 14.2134 393.121 14.968 393.121 15.8736V25H390.032V23.1268H389.925C389.73 23.5056 389.455 23.8607 389.1 24.1921C388.751 24.5176 388.31 24.781 387.777 24.9822C387.25 25.1776 386.632 25.2752 385.921 25.2752ZM386.756 22.9137C387.401 22.9137 387.96 22.7865 388.434 22.532C388.907 22.2715 389.271 21.9283 389.526 21.5021C389.786 21.076 389.917 20.6114 389.917 20.1083V18.5014C389.816 18.5843 389.644 18.6612 389.402 18.7322C389.165 18.8033 388.899 18.8654 388.603 18.9187C388.307 18.9719 388.014 19.0193 387.724 19.0607C387.434 19.1022 387.182 19.1377 386.969 19.1673C386.49 19.2324 386.061 19.3389 385.682 19.4869C385.303 19.6348 385.004 19.842 384.785 20.1083C384.566 20.3687 384.457 20.7061 384.457 21.1204C384.457 21.7122 384.673 22.1591 385.105 22.4609C385.537 22.7628 386.087 22.9137 386.756 22.9137ZM402.301 25.2663C400.94 25.2663 399.771 24.9674 398.794 24.3697C397.824 23.7719 397.075 22.9463 396.548 21.8928C396.027 20.8333 395.767 19.6141 395.767 18.2351C395.767 16.8501 396.033 15.628 396.566 14.5685C397.099 13.5032 397.85 12.6746 398.821 12.0827C399.798 11.485 400.952 11.1861 402.283 11.1861C403.39 11.1861 404.37 11.3903 405.222 11.7987C406.08 12.2011 406.764 12.7723 407.273 13.5121C407.782 14.246 408.072 15.1042 408.143 16.0866H405.071C404.947 15.4297 404.651 14.8822 404.183 14.4442C403.722 14.0004 403.103 13.7784 402.328 13.7784C401.671 13.7784 401.094 13.956 400.597 14.3111C400.099 14.6603 399.712 15.1634 399.434 15.8203C399.161 16.4773 399.025 17.2644 399.025 18.1818C399.025 19.111 399.161 19.91 399.434 20.5788C399.706 21.2417 400.088 21.7537 400.579 22.1147C401.076 22.4698 401.659 22.6474 402.328 22.6474C402.801 22.6474 403.224 22.5586 403.597 22.381C403.976 22.1976 404.293 21.9342 404.547 21.5909C404.802 21.2476 404.976 20.8304 405.071 20.3391H408.143C408.066 21.3039 407.782 22.1591 407.29 22.9048C406.799 23.6446 406.13 24.2247 405.284 24.6449C404.438 25.0592 403.443 25.2663 402.301 25.2663ZM410.782 25V11.3636H413.995V25H410.782ZM412.397 9.42827C411.888 9.42827 411.45 9.25959 411.083 8.92223C410.717 8.57895 410.533 8.16761 410.533 7.68821C410.533 7.20289 410.717 6.79155 411.083 6.45419C411.45 6.11091 411.888 5.93928 412.397 5.93928C412.912 5.93928 413.35 6.11091 413.711 6.45419C414.078 6.79155 414.262 7.20289 414.262 7.68821C414.262 8.16761 414.078 8.57895 413.711 8.92223C413.35 9.25959 412.912 9.42827 412.397 9.42827ZM422.361 25.2397C421.289 25.2397 420.331 24.9645 419.484 24.4141C418.638 23.8636 417.969 23.0646 417.478 22.017C416.987 20.9695 416.741 19.697 416.741 18.1996C416.741 16.6844 416.989 15.406 417.487 14.3643C417.99 13.3168 418.667 12.5266 419.52 11.994C420.372 11.4554 421.322 11.1861 422.369 11.1861C423.168 11.1861 423.825 11.3222 424.34 11.5945C424.855 11.8608 425.264 12.1834 425.565 12.5621C425.867 12.935 426.101 13.2872 426.267 13.6186H426.4V6.81818H429.623V25H426.462V22.8516H426.267C426.101 23.183 425.861 23.5352 425.548 23.908C425.234 24.275 424.82 24.5887 424.305 24.8491C423.79 25.1095 423.142 25.2397 422.361 25.2397ZM423.257 22.603C423.938 22.603 424.518 22.4195 424.997 22.0526C425.477 21.6797 425.841 21.1618 426.089 20.4989C426.338 19.8361 426.462 19.0637 426.462 18.1818C426.462 17.3 426.338 16.5335 426.089 15.8825C425.847 15.2314 425.486 14.7254 425.006 14.3643C424.533 14.0033 423.95 13.8228 423.257 13.8228C422.541 13.8228 421.943 14.0092 421.464 14.3821C420.985 14.755 420.623 15.2699 420.381 15.9268C420.138 16.5838 420.017 17.3355 420.017 18.1818C420.017 19.0341 420.138 19.7946 420.381 20.4634C420.629 21.1263 420.993 21.6501 421.473 22.0348C421.958 22.4136 422.553 22.603 423.257 22.603ZM436.971 25.2752C436.107 25.2752 435.329 25.1213 434.636 24.8136C433.95 24.4999 433.405 24.0382 433.003 23.4286C432.606 22.819 432.408 22.0674 432.408 21.1737C432.408 20.4042 432.55 19.768 432.834 19.2649C433.118 18.7618 433.506 18.3594 433.997 18.0575C434.488 17.7557 435.042 17.5278 435.657 17.3739C436.279 17.2141 436.921 17.0987 437.584 17.0277C438.383 16.9448 439.031 16.8709 439.528 16.8058C440.025 16.7347 440.386 16.6282 440.611 16.4862C440.842 16.3382 440.957 16.1103 440.957 15.8026V15.7493C440.957 15.0805 440.759 14.5626 440.363 14.1957C439.966 13.8287 439.395 13.6452 438.649 13.6452C437.862 13.6452 437.238 13.8169 436.776 14.1602C436.32 14.5034 436.012 14.9089 435.853 15.3764L432.852 14.9503C433.089 14.1217 433.479 13.4292 434.024 12.8729C434.568 12.3106 435.234 11.8904 436.021 11.6122C436.809 11.3281 437.679 11.1861 438.631 11.1861C439.288 11.1861 439.942 11.263 440.593 11.4169C441.244 11.5708 441.839 11.8253 442.378 12.1804C442.916 12.5296 443.349 13.006 443.674 13.6097C444.005 14.2134 444.171 14.968 444.171 15.8736V25H441.082V23.1268H440.975C440.78 23.5056 440.505 23.8607 440.15 24.1921C439.8 24.5176 439.359 24.781 438.827 24.9822C438.3 25.1776 437.682 25.2752 436.971 25.2752ZM437.806 22.9137C438.451 22.9137 439.01 22.7865 439.484 22.532C439.957 22.2715 440.321 21.9283 440.576 21.5021C440.836 21.076 440.966 20.6114 440.966 20.1083V18.5014C440.866 18.5843 440.694 18.6612 440.451 18.7322C440.215 18.8033 439.948 18.8654 439.652 18.9187C439.356 18.9719 439.063 19.0193 438.773 19.0607C438.483 19.1022 438.232 19.1377 438.019 19.1673C437.539 19.2324 437.11 19.3389 436.732 19.4869C436.353 19.6348 436.054 19.842 435.835 20.1083C435.616 20.3687 435.506 20.7061 435.506 21.1204C435.506 21.7122 435.722 22.1591 436.155 22.4609C436.587 22.7628 437.137 22.9137 437.806 22.9137ZM452.463 25.2397C451.392 25.2397 450.433 24.9645 449.587 24.4141C448.74 23.8636 448.072 23.0646 447.58 22.017C447.089 20.9695 446.843 19.697 446.843 18.1996C446.843 16.6844 447.092 15.406 447.589 14.3643C448.092 13.3168 448.77 12.5266 449.622 11.994C450.474 11.4554 451.424 11.1861 452.472 11.1861C453.271 11.1861 453.928 11.3222 454.443 11.5945C454.958 11.8608 455.366 12.1834 455.668 12.5621C455.97 12.935 456.204 13.2872 456.369 13.6186H456.503V6.81818H459.725V25H456.565V22.8516H456.369C456.204 23.183 455.964 23.5352 455.65 23.908C455.337 24.275 454.922 24.5887 454.407 24.8491C453.892 25.1095 453.244 25.2397 452.463 25.2397ZM453.36 22.603C454.04 22.603 454.62 22.4195 455.1 22.0526C455.579 21.6797 455.943 21.1618 456.192 20.4989C456.44 19.8361 456.565 19.0637 456.565 18.1818C456.565 17.3 456.44 16.5335 456.192 15.8825C455.949 15.2314 455.588 14.7254 455.109 14.3643C454.635 14.0033 454.052 13.8228 453.36 13.8228C452.644 13.8228 452.046 14.0092 451.566 14.3821C451.087 14.755 450.726 15.2699 450.483 15.9268C450.241 16.5838 450.119 17.3355 450.119 18.1818C450.119 19.0341 450.241 19.7946 450.483 20.4634C450.732 21.1263 451.096 21.6501 451.575 22.0348C452.061 22.4136 452.655 22.603 453.36 22.603ZM469.187 25.2663C467.82 25.2663 466.639 24.9822 465.644 24.4141C464.656 23.84 463.896 23.0291 463.363 21.9815C462.83 20.928 462.564 19.6881 462.564 18.2617C462.564 16.859 462.83 15.628 463.363 14.5685C463.901 13.5032 464.653 12.6746 465.618 12.0827C466.583 11.485 467.716 11.1861 469.018 11.1861C469.859 11.1861 470.652 11.3222 471.397 11.5945C472.149 11.8608 472.812 12.2751 473.386 12.8374C473.966 13.3996 474.422 14.1158 474.753 14.9858C475.085 15.8499 475.25 16.8797 475.25 18.0753V19.0607H464.073V16.8945H472.17C472.164 16.279 472.031 15.7315 471.77 15.2521C471.51 14.7668 471.146 14.3851 470.678 14.1069C470.217 13.8287 469.678 13.6896 469.062 13.6896C468.405 13.6896 467.828 13.8494 467.331 14.169C466.834 14.4827 466.446 14.897 466.168 15.4119C465.896 15.9209 465.757 16.4802 465.751 17.0898V18.9808C465.751 19.7739 465.896 20.4545 466.186 21.0227C466.476 21.585 466.881 22.017 467.402 22.3189C467.923 22.6148 468.533 22.7628 469.231 22.7628C469.699 22.7628 470.122 22.6977 470.501 22.5675C470.879 22.4313 471.208 22.2331 471.486 21.9727C471.764 21.7122 471.974 21.3897 472.116 21.005L475.117 21.3423C474.928 22.1354 474.567 22.8279 474.034 23.4197C473.507 24.0057 472.833 24.4614 472.01 24.7869C471.187 25.1065 470.246 25.2663 469.187 25.2663Z" fill="white"/>
</svg>
